<?xml version="1.0" standalone="no"?>
<!DOCTYPE svg PUBLIC "-//W3C//DTD SVG 20010904//EN"
 "http://www.w3.org/TR/2001/REC-SVG-20010904/DTD/svg10.dtd">
<svg version="1.0" xmlns="http://www.w3.org/2000/svg"
 width="896.000000pt" height="896.000000pt" viewBox="0 0 896.000000 896.000000"
 preserveAspectRatio="xMidYMid meet">
<metadata>
Created by potrace 1.11, written by Peter Selinger 2001-2013
</metadata>
<g transform="translate(0.000000,896.000000) scale(0.100000,-0.100000)"
fill="#000000" stroke="none">
<path d="M5538 8066 c-1 -2 -41 -6 -87 -10 -215 -17 -450 -114 -650 -267 -153
-118 -365 -358 -476 -538 -21 -34 -41 -61 -44 -61 -3 1 -24 12 -46 25 -128 79
-428 207 -537 229 -13 3 -54 12 -93 20 -183 41 -419 41 -586 2 -493 -116 -828
-521 -889 -1076 -9 -89 -7 -399 3 -446 3 -12 8 -45 12 -75 31 -248 166 -765
297 -1139 53 -152 162 -436 196 -511 11 -24 32 -72 46 -106 88 -210 299 -634
380 -762 14 -22 26 -43 26 -45 0 -7 147 -242 213 -341 53 -79 211 -292 282
-380 13 -17 21 -35 17 -41 -7 -9 -126 -114 -207 -182 -435 -361 -887 -601
-1220 -648 -16 -3 -41 -7 -55 -11 -54 -13 -277 -11 -365 3 -49 8 -164 40 -254
70 -90 31 -173 57 -183 59 -11 2 -28 7 -38 10 -20 6 -41 11 -115 25 -27 6 -61
13 -75 16 -14 3 -74 7 -135 9 -175 7 -258 -25 -297 -113 -29 -65 -27 -135 5
-205 14 -32 32 -63 39 -71 7 -7 27 -28 44 -48 81 -93 251 -201 457 -291 252
-112 347 -131 637 -131 200 0 340 7 400 19 14 3 43 8 64 10 21 3 78 15 125 26
47 11 96 22 109 25 45 9 210 67 313 109 268 110 542 269 824 480 136 102 221
172 409 337 17 15 35 24 41 20 5 -4 53 -36 105 -71 141 -94 380 -204 490 -225
14 -2 46 -9 72 -15 79 -18 149 -24 268 -24 185 1 359 42 530 125 298 145 521
360 874 843 143 195 150 205 201 280 23 33 67 97 97 141 185 268 687 1032 783
1189 26 44 58 96 70 115 12 19 55 89 95 155 40 66 113 183 163 260 136 211
163 256 221 373 83 167 105 246 98 348 -5 62 -149 160 -250 171 -139 13 -318
-88 -444 -254 -41 -53 -591 -870 -599 -889 -8 -18 -600 -908 -744 -1119 -117
-171 -313 -442 -383 -530 -31 -38 -60 -74 -64 -80 -4 -5 -44 -52 -89 -104
-291 -331 -556 -405 -884 -246 -142 69 -139 53 -28 180 363 417 792 1013 1089
1515 21 36 43 73 49 82 170 284 515 967 629 1248 15 36 31 74 36 85 51 108
182 522 204 649 3 16 10 54 17 85 27 131 37 253 34 431 -3 201 -6 219 -41 358
-51 205 -148 374 -300 527 -225 226 -512 370 -779 390 -44 4 -85 8 -92 10 -6
2 -13 2 -15 1z m141 -727 c160 -56 317 -204 360 -340 46 -144 46 -324 1 -545
-42 -208 -149 -522 -268 -784 -16 -36 -39 -87 -52 -115 -80 -177 -306 -623
-395 -780 -75 -132 -212 -362 -259 -435 -187 -287 -340 -512 -419 -615 -4 -5
-55 -73 -114 -150 -145 -192 -249 -319 -366 -451 -15 -17 -34 -40 -41 -49 -18
-25 -27 -17 -105 89 -417 561 -796 1350 -1035 2154 -53 178 -77 272 -114 452
-40 191 -53 290 -53 425 -1 284 94 478 275 561 74 34 136 43 246 39 172 -8
345 -69 595 -211 92 -52 86 -45 74 -87 -5 -21 -12 -52 -14 -70 -2 -17 -6 -59
-10 -92 -36 -302 26 -613 154 -773 138 -173 390 -210 572 -85 192 133 358 448
362 688 2 143 -17 238 -71 354 -29 62 -99 174 -131 208 -12 12 -21 28 -21 35
0 23 127 216 193 296 135 161 266 255 407 291 84 21 149 18 229 -10z m-1207
-838 c37 -24 53 -44 82 -103 20 -40 38 -88 41 -107 3 -19 8 -37 10 -41 6 -10
17 -122 17 -175 -1 -89 -40 -214 -75 -243 -53 -45 -124 -26 -156 42 -43 91
-48 233 -15 516 4 36 8 70 9 75 1 6 3 22 3 38 2 36 25 35 84 -2z"/>
</g>
</svg>
